<?xml version="1.0" encoding="UTF-8" standalone="no"?>
<svg
   width="1200"
   height="600"
   version="1.1"
   viewBox="0 0 120 60"
   id="svg28"
   sodipodi:docname="Flag_of_New_Holland.svg"
   inkscape:version="1.1.2 (b8e25be833, 2022-02-05)"
   xmlns:inkscape="http://www.inkscape.org/namespaces/inkscape"
   xmlns:sodipodi="http://sodipodi.sourceforge.net/DTD/sodipodi-0.dtd"
   xmlns="http://www.w3.org/2000/svg"
   xmlns:svg="http://www.w3.org/2000/svg">
  <defs
     id="defs32" />
  <sodipodi:namedview
     id="namedview30"
     pagecolor="#ffffff"
     bordercolor="#666666"
     borderopacity="1.0"
     inkscape:pageshadow="2"
     inkscape:pageopacity="0.0"
     inkscape:pagecheckerboard="0"
     showgrid="false"
     inkscape:zoom="0.46666667"
     inkscape:cx="292.5"
     inkscape:cy="73.928571"
     inkscape:window-width="1728"
     inkscape:window-height="992"
     inkscape:window-x="-8"
     inkscape:window-y="-8"
     inkscape:window-maximized="1"
     inkscape:current-layer="svg28" />
  <clipPath
     id="b">
    <path
       d="M0,0H60V30H0z"
       id="path2" />
  </clipPath>
  <clipPath
     id="a">
    <path
       d="m0 0v15h60v15zm0 30h30v-30h30z"
       id="path5" />
  </clipPath>
  <rect
     width="120"
     height="60"
     fill="#012169"
     id="rect8"
     x="0"
     y="0"
     style="fill:#172651;fill-opacity:1" />
  <rect
     style="fill:#208329;fill-opacity:1;stroke-width:0.0377953;stroke-linecap:round"
     id="rect8689"
     width="60"
     height="60"
     x="30"
     y="0" />
  <g
     stroke-width="0"
     id="g26"
     transform="translate(-30)">
    <path
       d="m 108.68714,30.000201 c 0,10.322123 -8.3683,18.690143 -18.69014,18.690143 -10.322263,0 -18.690143,-8.36802 -18.690143,-18.690143 0,-10.322684 8.3683,-18.691545 18.690143,-18.691545 10.32226,0 18.69014,8.3683 18.69014,18.691545 z"
       fill="#ffd100"
       id="path18-2"
       style="fill:#cd3237;fill-opacity:1;stroke-width:0.47;stroke:none;stroke-opacity:1;stroke-miterlimit:4;stroke-dasharray:none" />
    <path
       d="m 103.33,30 c 0,7.3635 -5.9697,13.333 -13.333,13.333 -7.3636,0 -13.333,-5.9695 -13.333,-13.333 0,-7.3639 5.9697,-13.334 13.333,-13.334 7.3636,0 13.333,5.9697 13.333,13.334 z"
       fill="#ffd100"
       id="path18"
       style="fill:#ffffff" />
    <path
       d="m 91.542,23.692 c -0.10231,0.19967 -0.48425,0.81915 -0.56538,0.91793 -0.32409,0.39676 -0.40452,0.47907 -0.58867,0.72743 -0.10113,0.1357 -0.31679,0.41934 -0.44991,0.66087 -0.29092,0.52917 -0.29092,0.72155 -0.29092,0.72155 0,0 -0.4104,0.24106 -0.44967,0.258 -0.03975,0.01646 -0.22342,0.13453 -0.47648,0.31703 -0.33067,0.23777 -0.18509,0.11971 -0.54257,0.4238 -0.30644,0.26176 -0.57362,0.74177 -0.7406,0.9652 -0.1985,0.26458 -0.35137,0.66534 -0.38382,0.99178 -0.03951,0.39746 0.01341,0.49671 0.01341,0.82738 0,0.2547 -0.06609,0.46966 -0.2119,0.46966 -0.11218,0 -0.14534,0.01341 -0.22484,-0.27752 -0.0461,-0.16957 -0.04868,-0.13006 -0.07902,-0.52916 -0.0068,-0.08608 -0.03975,-0.35066 0.07902,-0.8208 0.14817,-0.58867 0.31938,-0.81397 0.61548,-1.2693 0.29751,-0.45485 1.3427,-1.7006 1.4882,-2.3685 0.14369,-0.66346 0.25117,-1.3497 -0.21849,-2.064 -0.38618,-0.58679 -1.0863,-0.67028 -1.2368,-0.68768 -0.18838,-0.02211 -0.43345,-0.05903 -0.81609,0.0461 -0.21566,0.05974 -0.36148,0.10583 -0.61924,0.27117 -0.34831,0.22296 -0.516,0.47954 -0.62183,0.73425 -0.09925,0.23824 -0.15546,0.42898 -0.09925,0.60913 0.03786,0.12183 0.09925,0.14558 0.09925,0.14558 0,0 -0.2025,0.80716 -0.13217,0.9659 0.07267,0.16181 0.22578,0.17239 0.29751,0.18509 0.07761,0.01364 0.01152,-0.48448 0.44074,-0.7921 0,0 0.24224,-0.02375 0.48542,-0.0969 0.10325,-0.03152 0.33961,-0.17639 0.38758,-0.2206 0.12982,-0.11877 0.33584,-0.36289 0.48542,-0.33232 0.08443,0.01693 0.15946,0.04092 0.24483,0.12559 0.17686,0.20296 0.13382,0.44497 0.11242,0.72696 -0.01411,0.17968 -0.16722,0.5795 -0.82667,1.2773 -0.79375,0.84008 -1.0915,1.1239 -1.6341,1.8248 -0.39182,0.50682 -0.53316,0.71284 -0.90617,1.4029 -0.12324,0.22813 -0.45649,1.1642 -0.33067,1.9513 0.19097,1.1931 0.76482,1.7587 1.1087,2.0635 0.34478,0.30527 1.1999,0.66981 1.1999,0.66981 0,0 0.39017,0.22248 1.1244,0.32926 1.1907,0.17192 1.3469,0.11665 1.8744,0.04116 0.51176,-0.07267 1.6842,-0.3255 2.0811,-0.4579 0.08514,-0.02893 0.13641,0.1985 0.55551,0.44309 0.39676,0.23142 0.44332,0.25635 0.97907,0.24483 0.60184,-0.01341 0.70602,-0.08773 0.97225,-0.17216 0.13735,-0.04374 0.21849,-0.07267 0.34408,-0.09901 0.06185,-0.01318 0.21802,-0.02658 0.30433,-0.05292 0.12959,-0.04068 -0.016,-0.09596 -0.08631,-0.10583 -0.26458,-0.03975 -0.34878,-0.13899 -0.37677,-0.17874 0,0 -0.04633,-0.03951 0.02634,-0.0595 0,0 0.16298,0 0.58208,-0.13218 0.25141,-0.07926 0.46708,-0.16957 0.6484,-0.258 0.37841,-0.18509 0.75471,-0.43744 0.90593,-0.54892 0.17874,-0.13241 0.36383,-0.26458 0.76082,-0.59525 0.3977,-0.33184 0.48283,-0.50282 0.58208,-0.64182 0.06609,-0.09337 0.09431,-0.20931 0.01975,-0.17192 -0.03975,0.01999 -0.09925,0.04633 -0.15193,0.07267 0,0 -0.11265,0.0059 -0.04657,-0.08584 0.01575,-0.02258 0.08443,-0.07432 0.12582,-0.10113 0,0 0.27846,-0.25212 0.47625,-0.48119 0.21755,-0.25282 0.35042,-0.4365 0.44967,-0.60184 0,0 0.04704,-0.09925 -0.07926,-0.03316 -0.13899,0.07291 -0.16534,0.11265 -0.16534,0.11265 0,0 -0.09925,0.01317 -0.03316,-0.1985 0.07526,-0.23895 0.07926,-0.18509 0.14558,-0.32408 0.0635,-0.13382 0.21825,-0.38382 0.33067,-0.53575 0.11924,-0.16134 0.23142,-0.29116 0.37042,-0.54234 0.13805,-0.25 0.01081,-0.18415 -0.14558,-0.11994 -0.12559,0.05221 -0.23072,0.08537 -0.27775,0.10019 -0.08114,0.02564 -0.43815,0.18815 -0.52917,0.22484 -0.24318,0.09831 -0.27775,0.11406 -0.50941,0.23142 -0.28834,0.14628 -0.47531,0.23401 -0.5421,0.26458 -0.07291,0.03293 -0.09925,0.07267 -0.29774,0.08608 -0.2707,0.01811 -0.24483,0.0064 -0.42357,0.0064 -0.17169,0 -0.29092,0.02258 -0.40993,0 -0.1183,-0.02234 -0.19944,0.02728 -0.0595,-0.1785 0.13876,-0.20508 0.119,-0.17851 0.21825,-0.30527 0.06185,-0.07832 0.26364,-0.36336 0.25776,-0.35678 -0.03363,0.0381 0.29116,-0.40264 0.2714,-0.44897 -0.01975,-0.04633 -0.15216,0.07949 -0.30433,0.07267 -0.09266,0 -0.21825,-0.03293 -0.26458,-0.03975 -0.02563,-0.0035 -0.03316,-0.07244 0.07267,-0.17168 0.07549,-0.07032 0.0167,-0.01858 0.17874,-0.14558 0.09831,-0.07667 0.19238,-0.1731 0.258,-0.23824 0.13218,-0.13217 0.1785,-0.17192 0.32409,-0.35725 0.2166,-0.27564 0.29751,-0.39746 0.29751,-0.39746 0,0 0.09361,-0.12935 -0.06608,-0.07291 0,0 -0.02634,0.01999 -0.27117,0.14582 -0.11336,0.05785 -0.29939,0.08984 -0.40358,0.09243 -0.10324,0.0016 -0.07432,-0.0548 -0.0064,-0.10583 0.06679,-0.05009 0.03787,-0.05127 -0.02681,-0.05292 -0.10489,-0.0026 -0.34619,0.0548 -0.28434,-0.03975 0.07032,-0.10795 0.2754,-0.14981 0.22484,-0.17827 0,0 -0.27752,0.02634 -0.40334,0.03951 0,0 -0.08608,-0.01317 -0.05292,-0.09925 0.01152,-0.02963 0.17122,-0.16675 0.19168,-0.21167 0,0 0.17874,-0.23801 0.33091,-0.45626 0,0 0.33725,-0.32432 0.09925,-0.31091 -0.09925,0.0066 -0.30433,0.19168 -0.4699,0.25118 -0.16534,0.05974 -0.67451,0.28457 -0.37018,-0.0461 0,0 0.06632,-0.0595 0.119,-0.13899 0,0 0.22484,-0.28387 0.27117,-0.36312 0,0 0.05292,-0.09925 -0.14558,-0.01341 0,0 -0.32644,0.1477 -0.38359,0.11924 -0.06609,-0.03316 -0.04633,-7.06e-4 -0.01999,-0.14628 0.0134,-0.07291 0.11265,-0.29774 0.18556,-0.42333 0.10583,-0.18321 0.23401,-0.3436 0.27117,-0.38359 0.06209,-0.0682 0.1016,-0.11406 -0.04633,-0.07949 0,0 -0.30104,0.20179 -0.50941,0.2714 -0.15875,0.05268 -0.23801,0.0595 -0.33726,0.06609 -0.08208,0.0054 -0.31091,0.01317 -0.31091,0.01317 0,0 -0.15875,0.01317 -0.24483,0.01999 -0.11242,0.0087 -0.0066,-0.09925 0.09925,-0.24483 0,0 0.0381,-0.07549 0.15217,-0.25729 l 0.42338,-0.71453 c 0,0 0.13382,-0.17521 -0.06609,-0.07267 -0.01411,0.0073 -0.10183,0.0802 -0.11265,0.09196 -0.13876,0.15193 -0.15522,0.14464 -0.31068,0.27799 0,0 -0.16533,0.1056 -0.28457,0.13852 0,0 -0.25141,0.139 -0.24459,0.02681 0.0089,-0.15875 0.03975,-0.2119 0.06609,-0.25823 0.03716,-0.06538 0.02634,-0.05292 0.09925,-0.21143 0,0 0.05292,-0.15875 0.09243,-0.37724 l 0.03316,-0.21825 c 0,0 0.02634,-0.25212 -0.10583,-0.0066 -0.13147,0.24295 -0.28598,0.40993 -0.42333,0.51576 -0.07691,0.05903 -0.119,0.0929 -0.39017,0.19215 0,0 -0.22672,0.11077 -0.38382,0.13876 -0.11218,0.01999 -0.06609,-0.1785 -0.03316,-0.3309 0,0 0.04657,-0.119 0.12606,-0.57526 0,0 0.02634,-0.22484 -0.11265,-0.05315 0,0 -0.07032,0.17474 -0.20508,0.36383 -0.16275,0.22978 -0.26458,0.31774 -0.32408,0.39064 0,0 -0.18509,0.25776 -0.25118,0.39676 -0.01176,0.02305 -0.04657,-0.0064 -0.06609,0.0064 -0.0548,0.03551 -0.06632,-0.57526 -0.06632,-0.57526 0,0 -0.03293,-0.07291 -0.09266,-0.0066 0,0 -0.06632,0.119 -0.1056,0.21167 0,0 -0.07291,0.21214 -0.12606,0.25188 -0.05268,0.03975 -0.11218,-0.64229 -0.09925,-0.82738 0,0 -0.01975,-0.19191 -0.07597,-0.08373 z"
       id="path20" />
    <path
       d="m 86.425,23.692 c 0.0167,0.0301 -0.10489,0.254 -0.25776,0.37512 -0.18674,0.14817 -0.40358,0.2072 -0.47625,0.1277 -0.06279,-0.06797 0.12559,-0.35043 0.27352,-0.43039 0.20837,-0.11218 0.4358,-0.11642 0.46049,-0.07244 z"
       fill="#ffd100"
       id="path22"
       style="fill:#ffffff" />
    <path
       d="m 85.85,23.877 c 0.0461,0.02658 0.16439,0.1731 0.23142,0.23166 0.05292,0.0461 0.0595,0.03575 0.03316,-0.02634 -0.01999,-0.04657 -0.07291,-0.19215 -0.10583,-0.34408 0,0 -0.20508,0.11242 -0.15875,0.13876"
       id="path24" />
  </g>
  <rect
     style="fill:#ffd100;fill-opacity:1;stroke-width:0.0377953;stroke-linecap:round"
     id="rect12014"
     width="15.909903"
     height="12.121831"
     x="6.5154839"
     y="-24.849752" />
  <rect
     style="fill:#b02b2f;fill-opacity:1;stroke-width:0.0377953;stroke-linecap:round"
     id="rect17698"
     width="28.714285"
     height="23.142857"
     x="-69.428574"
     y="0.2142857" />
  <rect
     style="fill:#172651;fill-opacity:1;stroke-width:0.0377953;stroke-linecap:round"
     id="rect17700"
     width="38.785713"
     height="34.714287"
     x="-70.071426"
     y="47.57143" />
  <rect
     style="fill:#208329;fill-opacity:1;stroke-width:0.0377953;stroke-linecap:round"
     id="rect26263"
     width="30.214285"
     height="27.214285"
     x="-52.5"
     y="-46.07143" />
  <path
     style="fill:none;stroke:#000000;stroke-width:0.1px;stroke-linecap:butt;stroke-linejoin:miter;stroke-opacity:1"
     d="M 0,0 V 60"
     id="path36759" />
</svg>
