<?xml version="1.0" encoding="UTF-8" standalone="no"?>
<svg
   width="480"
   height="320"
   version="1.1"
   id="svg6"
   sodipodi:docname="Flag_of_Cabotia.svg"
   inkscape:version="1.1.2 (b8e25be833, 2022-02-05)"
   xmlns:inkscape="http://www.inkscape.org/namespaces/inkscape"
   xmlns:sodipodi="http://sodipodi.sourceforge.net/DTD/sodipodi-0.dtd"
   xmlns="http://www.w3.org/2000/svg"
   xmlns:svg="http://www.w3.org/2000/svg">
  <defs
     id="defs10">
    <clipPath
       id="f">
      <path
         d="M -4800,-2400 H 4800 V 2400 H -4800 Z"
         id="path4-3" />
    </clipPath>
    <clipPath
       id="f-8">
      <path
         d="M -4800,-2400 H 4800 V 2400 H -4800 Z"
         id="path4-3-2" />
    </clipPath>
    <clipPath
       id="f-8-7">
      <path
         d="M -4800,-2400 H 4800 V 2400 H -4800 Z"
         id="path4-3-2-4" />
    </clipPath>
  </defs>
  <sodipodi:namedview
     id="namedview8"
     pagecolor="#ffffff"
     bordercolor="#666666"
     borderopacity="1.0"
     inkscape:pageshadow="2"
     inkscape:pageopacity="0.0"
     inkscape:pagecheckerboard="0"
     showgrid="false"
     inkscape:zoom="1.1640625"
     inkscape:cx="213.47651"
     inkscape:cy="162.79195"
     inkscape:window-width="1728"
     inkscape:window-height="992"
     inkscape:window-x="-8"
     inkscape:window-y="-8"
     inkscape:window-maximized="1"
     inkscape:current-layer="svg6" />
  <path
     d="M 1.237e-6,0 H 480 V 320 H 1.237e-6 Z"
     fill="#f00000"
     id="path2"
     style="stroke-width:1.22474" />
  <path
     clip-path="url(#f-8-7)"
     fill="none"
     stroke="#0047b6"
     stroke-width="960"
     d="m -4800,2400 9600,-4800 m -9600,0 c 0,0 9600.0005,4799.9997 9600,4800"
     id="path12-7-2"
     transform="matrix(0.04999999,0,0,0.06666667,240,160.00001)"
     sodipodi:nodetypes="cccc"
     style="fill:#0047b6;fill-opacity:1;stroke:#ffffff;stroke-width:1098.63990964;stroke-miterlimit:4;stroke-dasharray:none;stroke-opacity:1" />
  <path
     clip-path="url(#f-8)"
     fill="none"
     stroke="#0047b6"
     stroke-width="960"
     d="m -4800,2400 9600,-4800 m -9600,0 c 0,0 9600.0005,4799.9997 9600,4800"
     id="path12-7"
     transform="matrix(0.04999999,0,0,0.06666667,240,160.00001)"
     sodipodi:nodetypes="cccc"
     style="fill:#0046b6;fill-opacity:1;stroke:#0047b6;stroke-width:627.53937516;stroke-miterlimit:4;stroke-dasharray:none;stroke-opacity:1" />
  <g
     id="g9426"
     transform="matrix(1.5,0,0,1,1.237e-6,0)">
    <path
       id="path6859-9"
       style="fill:#ffffff;fill-opacity:1;stroke-width:78.2014"
       d="M 121.01896,-0.0198 135.92325,129.89426 2e-6,115.00977 v 89.98046 L 135.92325,190.06614 121.01896,319.9802 198.98096,320 184.07667,190.08594 320,204.99023 V 115.00977 L 184.07667,129.91406 198.98096,0 Z"
       sodipodi:nodetypes="ccccccccccccc" />
    <path
       id="path6859"
       style="fill:#169b62;fill-opacity:1;stroke-width:78.2014"
       d="M 133.01896,-0.0198 147.92325,141.89426 -2.474e-6,127.00977 v 65.98046 L 147.92325,178.06614 133.01896,319.9802 186.98096,320 172.07667,178.08594 320,192.99023 V 127.00977 L 172.07667,141.91406 186.98096,0 Z"
       sodipodi:nodetypes="ccccccccccccc" />
  </g>
</svg>
