<?xml version="1.0" encoding="UTF-8" standalone="no"?>
<svg
   width="480"
   height="320"
   version="1.1"
   id="svg6"
   sodipodi:docname="Flag_of_Cabotia.svg"
   inkscape:version="1.1.2 (b8e25be833, 2022-02-05)"
   xmlns:inkscape="http://www.inkscape.org/namespaces/inkscape"
   xmlns:sodipodi="http://sodipodi.sourceforge.net/DTD/sodipodi-0.dtd"
   xmlns="http://www.w3.org/2000/svg"
   xmlns:svg="http://www.w3.org/2000/svg">
  <defs
     id="defs10">
    <clipPath
       id="f">
      <path
         d="M -4800,-2400 H 4800 V 2400 H -4800 Z"
         id="path4-3" />
    </clipPath>
    <clipPath
       id="f-8">
      <path
         d="M -4800,-2400 H 4800 V 2400 H -4800 Z"
         id="path4-3-2" />
    </clipPath>
    <clipPath
       id="f-8-7">
      <path
         d="M -4800,-2400 H 4800 V 2400 H -4800 Z"
         id="path4-3-2-4" />
    </clipPath>
  </defs>
  <sodipodi:namedview
     id="namedview8"
     pagecolor="#ffffff"
     bordercolor="#666666"
     borderopacity="1.0"
     inkscape:pageshadow="2"
     inkscape:pageopacity="0.0"
     inkscape:pagecheckerboard="0"
     showgrid="false"
     inkscape:zoom="1.646233"
     inkscape:cx="264.54336"
     inkscape:cy="169.78156"
     inkscape:window-width="1728"
     inkscape:window-height="992"
     inkscape:window-x="-8"
     inkscape:window-y="-8"
     inkscape:window-maximized="1"
     inkscape:current-layer="svg6" />
  <rect
     style="fill:#ffffff;fill-opacity:1;stroke:none;stroke-width:1.044;stroke-linecap:round;stroke-miterlimit:4;stroke-dasharray:none;stroke-opacity:1"
     id="rect31956"
     width="479.99991"
     height="320.00003"
     x="4.8999998e-05"
     y="-9.0000003e-06" />
  <path
     style="fill:#b60000;fill-opacity:1;stroke:none;stroke-width:1px;stroke-linecap:butt;stroke-linejoin:miter;stroke-opacity:1"
     d="M 479.99995,320.00002 240,160 479.99995,2e-6"
     id="path9053"
     sodipodi:nodetypes="ccc" />
  <path
     style="fill:#b60000;stroke:none;stroke-width:1px;stroke-linecap:butt;stroke-linejoin:miter;stroke-opacity:1;fill-opacity:1"
     d="M 4.9e-5,-9e-6 240,160 4.8e-5,320.00002 Z"
     id="path1517"
     sodipodi:nodetypes="cc" />
  <path
     clip-path="url(#f-8-7)"
     fill="none"
     stroke="#0047b6"
     stroke-width="960"
     d="m -4800,2400 9600,-4800 m -9600,0 c 0,0 9600.0005,4799.9997 9600,4800"
     id="path12-7-2"
     transform="matrix(0.04999999,0,0,0.06666667,240,160.00001)"
     sodipodi:nodetypes="cccc"
     style="fill:#0047b6;fill-opacity:1;stroke:#ffffff;stroke-width:1098.63990964;stroke-miterlimit:4;stroke-dasharray:none;stroke-opacity:1" />
  <path
     clip-path="url(#f-8)"
     fill="none"
     stroke="#0047b6"
     stroke-width="960"
     d="m -4800,2400 9600,-4800 m -9600,0 c 0,0 9600.0005,4799.9997 9600,4800"
     id="path12-7"
     transform="matrix(0.04999999,0,0,0.06666667,240,160.00001)"
     sodipodi:nodetypes="cccc"
     style="fill:#0046b6;fill-opacity:1;stroke:#0047b6;stroke-width:627.53937516;stroke-miterlimit:4;stroke-dasharray:none;stroke-opacity:1" />
  <g
     id="use12"
     transform="matrix(19.083299,0,0,19.083299,115.63641,-18.789574)"
     style="fill:#169b62;fill-opacity:1">
    <path
       id="path924"
       d="m 5.7968,1.954 a 5.4,5.4 0 0 0 1.4064,0 10.4,10.4 0 0 0 0,4.092 5.4,5.4 0 0 0 -1.4064,0 10.4,10.4 0 0 0 0,-4.092 z"
       style="fill:#169b62;fill-opacity:1" />
    <path
       id="use926"
       d="m 8.546,3.2968 a 5.4,5.4 0 0 0 0,1.4064 10.4,10.4 0 0 0 -4.092,0 5.4,5.4 0 0 0 0,-1.4064 10.4,10.4 0 0 0 4.092,0 z"
       style="fill:#169b62;fill-opacity:1" />
  </g>
  <g
     id="use12-0"
     transform="matrix(19.083299,0,0,19.083299,115.6364,186.1232)"
     style="fill:#169b62;fill-opacity:1">
    <path
       id="path924-7"
       d="m 5.7968,1.954 a 5.4,5.4 0 0 0 1.4064,0 10.4,10.4 0 0 0 0,4.092 5.4,5.4 0 0 0 -1.4064,0 10.4,10.4 0 0 0 0,-4.092 z"
       style="fill:#169b62;fill-opacity:1" />
    <path
       id="use926-0"
       d="m 8.546,3.2968 a 5.4,5.4 0 0 0 0,1.4064 10.4,10.4 0 0 0 -4.092,0 5.4,5.4 0 0 0 0,-1.4064 10.4,10.4 0 0 0 4.092,0 z"
       style="fill:#169b62;fill-opacity:1" />
  </g>
  <g
     id="g4704"
     transform="matrix(2.3436389,0,0,2.3436389,-59.785568,-177.47485)"
     style="fill:#ffcc00;fill-opacity:1;stroke:#b99400;stroke-opacity:1;stroke-width:0.44546112;stroke-miterlimit:4;stroke-dasharray:none">
    <path
       d="m 48.959423,125.01713 c -1.72241,1.49752 -4.86298,4.78096 -4.56136,9.01159 0.19315,2.70666 1.00276,5.08523 1.5769,7.15425 0.32279,1.07154 0.15875,0.78844 -0.31221,0.0899 -1.6642,-2.30713 -3.26756,-3.16437 -5.25455,-3.32841 -2.84159,-0.23813 -5.42919,2.23834 -5.3551,5.52972 0.0582,2.50028 1.46048,5.02437 3.74909,6.17265 -0.88898,-4.16713 1.80709,-6.04036 4.01633,-5.40537 2.03462,0.58472 4.15126,3.85758 4.25709,8.74702 0.0609,2.81777 -1.54515,6.26525 -3.66972,7.03782 0.79638,0.79904 2.49234,1.15886 3.63533,0.0873 0.19049,1.27528 0.48418,2.18544 1.9182,3.48452 1.43667,-1.29908 1.73035,-2.20924 1.92085,-3.48452 1.14299,1.07155 2.83895,0.71173 3.63533,-0.0873 -2.12722,-0.77257 -3.73058,-4.22005 -3.66972,-7.03782 0.10583,-4.88944 2.22247,-8.1623 4.25444,-8.74702 2.21189,-0.63499 4.90532,1.23824 4.01897,5.40537 2.28862,-1.14828 3.69089,-3.67237 3.7491,-6.17265 0.0741,-3.29138 -2.51351,-5.76785 -5.3551,-5.52972 -1.98699,0.16404 -3.59035,1.02128 -5.25456,3.32841 -0.47095,0.69849 -0.63499,0.98159 -0.3122,-0.0899 0.57414,-2.06902 1.38375,-4.44759 1.5769,-7.15425 0.30162,-4.23063 -2.83895,-7.51407 -4.56401,-9.01159 z"
       id="path148"
       style="fill:#ffcc00;fill-opacity:1;stroke:#b99400;stroke-width:0.44546112;stroke-miterlimit:4;stroke-dasharray:none;stroke-opacity:1"
       sodipodi:nodetypes="cccccccsscccccccccccccc" />
    <path
       d="m 44.432463,151.42221 v 3.27286 h 9.03011 v -3.27286 z"
       id="path150"
       style="fill:#ffcc00;fill-opacity:1;stroke:#b99400;stroke-width:0.44546112;stroke-miterlimit:4;stroke-dasharray:none;stroke-opacity:1"
       sodipodi:nodetypes="ccccc" />
  </g>
  <path
     id="path826"
     d="M 479.98649,90.705972 V 244.3305 c -1.95804,-5.9557 -3.2634,-13.86945 -4.32401,-13.86945 -1.0606,0 0,-11.91141 0,-13.54311 0,-1.6317 -3.75291,-4.40559 -4.65034,-2.28438 -0.89744,2.12121 -0.48951,6.85314 -2.12121,8.40326 -1.55012,1.55011 -2.12121,1.87645 -4.16084,3.91608 0,-4.73193 1.87646,-9.38228 1.71329,-15.09323 -1.46853,0 -4.8951,-0.40792 -6.03729,2.61072 -1.14219,3.10023 -3.91608,9.21911 -6.60838,10.85081 -2.69231,1.55011 -2.12121,4.48717 -2.12121,5.22144 l -4.97669,4.97668 c 1.38695,-2.44755 2.36597,-5.05827 2.36597,-7.50582 0,-2.44755 -0.32634,-8.24008 4.81351,-13.29835 1.06061,-5.38461 1.06061,-8.40325 1.06061,-10.36129 -2.44755,2.44755 -9.54545,8.648 -11.58507,9.79019 1.71328,-3.10023 2.61072,-3.10023 2.93706,-4.73192 0.24475,-1.38695 1.71328,-7.17948 3.18181,-8.56643 -1.46853,-2.44755 -3.42657,0.81585 -4.48717,1.38695 -0.97902,0.57109 -8.24009,6.85314 -10.03496,7.91374 -1.79487,1.0606 -4.16083,3.2634 -5.9557,4.324 -1.79487,1.06061 -3.67132,2.28438 -4.8951,2.28438 0,-1.38694 4.40559,-4.56876 4.97668,-5.9557 0.73427,-1.87645 1.46853,-4.56876 5.22144,-8.07691 3.34499,-3.18182 6.20046,-6.85314 7.42424,-8.07692 1.22377,-1.22377 0.97902,-3.83449 -2.52914,-2.61072 -2.12121,0.73427 -2.12121,4.24242 -11.74824,4.24242 1.22378,-1.22377 11.4219,-7.99533 11.4219,-9.38227 0,-1.38695 -1.79487,-2.85548 -4.81351,-2.2028 -3.01865,0.65268 -1.87646,2.12121 -3.10023,2.12121 -1.71329,0 -5.79253,0.16317 -7.34265,0.48951 -1.55011,0.32634 -1.55011,-0.0816 -2.12121,1.87646 -1.6317,0.32634 -3.67132,0.97902 -6.77155,0.0816 1.38694,-3.42657 15.01163,-11.09555 16.72492,-11.58506 1.55011,-0.48951 3.34498,-4.07925 1.38694,-4.40559 -1.79487,-0.32634 -10.68763,1.22377 -12.64567,-1.38695 3.99767,-1.0606 5.05827,0.32634 5.95571,-0.57109 0.89743,-0.89744 2.36596,-2.28438 7.26106,-2.12121 1.38694,-1.38695 0.89743,-1.87646 -1.22378,-2.77389 -2.12121,-0.89744 -6.77155,-1.30536 -8.07691,-1.95804 -1.87645,-0.89744 -9.54544,0.97902 -15.01164,-3.18182 -1.95804,0 -5.22144,-1.0606 -5.22144,-1.0606 0,0 3.18182,-0.16317 6.85314,-0.16317 4.07925,0 9.46386,-3.50816 14.11421,-0.89744 3.10022,-1.79487 8.97434,-1.55011 9.54544,-1.55011 0.32634,-1.6317 0.16317,-2.03963 0.16317,-3.67133 -2.2028,-0.65268 -11.82982,-2.61071 -13.70628,-4.73192 3.34499,-1.38695 11.17714,2.20279 13.37994,1.14219 1.30536,-0.65268 0.0816,-3.99767 -3.8345,-5.62937 -3.91607,-1.6317 -12.80884,-5.22144 -13.29835,-7.83216 -1.71328,-0.48951 -5.38461,-0.65268 -6.28204,-1.55011 4.56876,-0.73427 10.52446,-0.48951 12.56409,0 2.61072,0.57109 4.24241,3.75291 7.66898,3.50815 3.10023,-0.24475 4.65035,0.97902 5.87412,0.97902 2.28438,0 2.36597,-0.40792 1.30536,-2.36596 -1.38694,-2.69231 -7.75057,-7.42424 -8.89276,-8.56643 1.71328,-0.89743 2.44755,-0.48951 4.97668,0.40793 2.44755,0.89743 -0.0816,-0.32634 4.24242,2.93706 1.30536,0.97902 4.07925,1.38694 1.87646,-2.03963 -2.2028,-3.42657 -6.77156,-7.66898 -5.62937,-10.2797 -1.95804,0 -7.66898,-3.18182 -7.66898,-8.24009 -1.55012,-1.55011 -4.48718,-3.50815 -6.11888,-5.13985 5.38461,-0.24476 19.98832,13.37994 22.19112,15.58273 2.20279,2.20279 11.17714,5.05827 5.79253,-3.83449 -3.34498,-5.38461 -3.83449,-7.01631 -4.40559,-9.05594 2.85548,1.06061 4.07925,5.05827 4.8951,5.05827 0.81585,0 5.38461,2.03963 5.13986,4.24242 2.52913,3.01865 2.28437,-0.89743 1.87645,-3.67132 -0.57109,-3.50816 -0.32634,-9.70862 -1.6317,-10.27971 -1.6317,-0.73427 -3.91608,-3.01864 -3.67132,-5.384609 0.24475,-2.12121 -4.16084,-10.361293 -5.38461,-11.585068 3.2634,0.48951 13.21676,10.361293 13.46152,16.806507 2.77389,1.38694 5.79253,2.77389 5.79253,7.34265 1.38695,3.18181 3.91608,4.8951 3.91608,-0.40793 0,-5.30302 -0.81585,-8.15849 -0.81585,-10.76921 1.6317,0 4.73193,3.42656 4.73193,5.3846 0,1.95804 0.32634,6.60839 0.32634,7.83216 0,1.22378 3.99767,3.42657 3.67133,-1.30536 -0.32634,-4.56876 0.32634,-8.40325 0.32634,-9.79019 -0.16317,-1.46853 2.44755,-9.219108 2.77389,-11.992998 z"
     fill="#ffcc00"
     style="stroke-width:0.81585" />
</svg>
