<?xml version="1.0" encoding="UTF-8" standalone="no"?>
<!-- Created with Inkscape (http://www.inkscape.org/) -->

<svg
   width="255mm"
   height="130mm"
   viewBox="0 0 255 130"
   version="1.1"
   id="svg5"
   inkscape:version="1.1.2 (b8e25be833, 2022-02-05)"
   sodipodi:docname="party logos.svg"
   xmlns:inkscape="http://www.inkscape.org/namespaces/inkscape"
   xmlns:sodipodi="http://sodipodi.sourceforge.net/DTD/sodipodi-0.dtd"
   xmlns:xlink="http://www.w3.org/1999/xlink"
   xmlns="http://www.w3.org/2000/svg"
   xmlns:svg="http://www.w3.org/2000/svg">
  <sodipodi:namedview
     id="namedview7"
     pagecolor="#ffffff"
     bordercolor="#666666"
     borderopacity="1.0"
     inkscape:pageshadow="2"
     inkscape:pageopacity="0.0"
     inkscape:pagecheckerboard="0"
     inkscape:document-units="mm"
     showgrid="false"
     inkscape:zoom="0.70710678"
     inkscape:cx="672.45855"
     inkscape:cy="385.3732"
     inkscape:window-width="1728"
     inkscape:window-height="992"
     inkscape:window-x="-8"
     inkscape:window-y="-8"
     inkscape:window-maximized="1"
     inkscape:current-layer="layer2"
     height="197mm" />
  <defs
     id="defs2" />
  <g
     inkscape:label="Layer 1"
     inkscape:groupmode="layer"
     id="layer1">
    <g
       id="g210419"
       inkscape:export-filename="C:\Users\sharm\OneDrive\Desktop\g210419.png"
       inkscape:export-xdpi="90.006302"
       inkscape:export-ydpi="90.006302">
      <g
         id="g847"
         style="fill:#000000;stroke-width:1.01503;stroke-miterlimit:4;stroke-dasharray:none"
         transform="matrix(3.3072932,0,0,3.3072932,110.5173,-2.037531)">
        <circle
           style="fill:#ffffff;fill-opacity:1;stroke:#009a49;stroke-width:1.01503;stroke-linecap:round;stroke-miterlimit:4;stroke-dasharray:none;stroke-opacity:1"
           id="path5608"
           cx="-14.442953"
           cy="19.788582"
           r="17.643431" />
        <g
           id="g5584"
           transform="matrix(0.95102211,0,0,0.95102211,-29.709153,4.492093)"
           style="stroke-width:1.0673;stroke-miterlimit:4;stroke-dasharray:none">
          <g
             id="g1446"
             style="fill:#800080;fill-opacity:1;stroke-width:1.0673;stroke-miterlimit:4;stroke-dasharray:none">
            <path
               d="m 15.418,8.627 c -0.173,-1.781 1.318,-2.25 0.585,-3.73 1.765,1.353 0.289,3.951 0.289,3.951 0,0 1.672,-0.92 1.745,-2.797 C 18.107,4.175 15.975,3.008 15.161,2.443 14.348,1.877 15.054,0 15.054,0 c 0,0 -1.07,1.204 -1.083,2.503 -0.012,1.299 0.228,1.915 0.745,2.758 0.517,0.842 0.338,1.817 0.702,3.366 z"
               id="path839"
               style="fill:#800080;fill-opacity:1;stroke-width:1.0673;stroke-miterlimit:4;stroke-dasharray:none" />
            <path
               id="path841-9"
               style="fill:#800080;fill-opacity:1;stroke-width:26.6826;stroke-miterlimit:4;stroke-dasharray:none"
               d="m 80.078125,159.55469 c -0.05,0 0.399219,0.90039 0.574219,2.52539 0.25,1.475 -0.025,3.72578 -0.75,6.42578 -1.575,5.4 -5.500391,12.79961 -9.775391,22.34961 -4.25,9.575 -9.125,21.42578 -11,36.05078 -0.925,7.25 -1.02539,15.3 0.599609,23.5 0.8,4.125 1.925001,8.275 3.625,12.25 l 1.326172,2.97461 1.324219,2.67383 c 0.675,1.4 1.82461,3.40117 2.849609,5.20117 4.15,6.85 8.701172,12.82499 13.576172,18.25 4.75,5.525 9.848829,10.32539 14.798828,14.77539 3.704168,3.35612 7.310478,6.24121 10.890628,9.125 h 27.61133 c -5.64173,-8.70162 -12.64746,-17.65139 -19.97657,-26.77539 -3.975,-4.925 -7.9,-9.90078 -11.75,-14.92578 -3.7,-5 -7.474606,-10.07461 -10.349606,-15.09961 -3.2,-5.3 -5.275782,-9.54961 -6.675782,-14.59961 -0.724999,-2.475 -1.148437,-5.12539 -1.648437,-7.77539 -0.325,-2.7 -0.601172,-5.45 -0.701172,-8.25 -0.525,-11.2 0.85,-22.82461 1.625,-33.22461 0.85,-10.4 1.125,-19.87617 -0.625,-26.57617 -0.75,-3.375 -2.250391,-5.79922 -3.525391,-7.19922 -1.199999,-1.275 -2.048437,-1.57578 -2.023437,-1.67578 z m 128.423825,55.07617 c 0,0 -0.25,0.60039 -0.625,1.77539 -0.35,1.225 -0.87461,2.99922 -1.22461,5.32422 -0.275,2.25 -0.65039,5.05 -0.77539,8.125 -0.2,2.975 -0.35,6.32461 -0.5,9.97461 -0.2,3.5 -0.32422,7.15039 -0.82422,10.65039 -0.325,3.525 -1.12461,6.85039 -2.09961,9.90039 -0.97499,3.05 -2.55078,5.575 -4.05078,8.125 l -1.125,1.32422 c -0.35,0.45 -0.42461,0.82461 -1.47461,1.84961 l -2.42578,2.625 -0.19922,0.17578 -0.0996,0.125 -0.32617,0.25 -1.27539,1.19922 c -3.35,3.3 -6.67383,6.55039 -9.92383,10.02539 -3.275,3.325 -6.47578,7.02539 -9.42578,10.65039 -3.025,3.65 -5.82422,7.59961 -8.19922,11.47461 -1.4603,2.57409 -2.69931,4.97754 -3.83984,7.45117 h 28.94727 c 0.35741,-0.24219 0.6289,-0.48438 0.99218,-0.72656 1.75,-1.275 3.49961,-2.64883 5.22461,-4.04883 1.725,-1.4 3.65078,-2.85 5.42578,-4.375 3.65,-2.925 7.2754,-6.35078 10.90039,-9.67578 l 1.375,-1.29883 1.29883,-1.35156 0.55078,-0.67383 2.34961,-2.70117 c 0.65,-0.65 1.84922,-2.29922 2.82422,-3.82422 0.975,-1.525 2.00078,-3.07461 2.80078,-4.59961 1.325,-2.975 2.75079,-5.85117 3.42578,-8.95117 0.925,-3.025 1.39922,-6.02461 1.57422,-8.97461 0.35,-5.825 -0.30078,-11.27383 -1.55078,-15.92383 -1.125,-4.725 -2.825,-8.75078 -4.5,-12.30078 -3.475,-7 -7.02422,-12.02578 -9.44922,-15.67578 -1.1,-1.825 -2.27539,-3.27422 -2.77539,-4.32422 -0.65,-1.05 -1,-1.59961 -1,-1.59961 z m -15.67383,60.22461 -0.0762,0.0996 -0.0996,0.0762 c 0.1,-0.075 0.10079,-0.0758 0.17578,-0.17578 z"
               transform="matrix(0.04,0,0,0.04,10.274896,-2.7131839)" />
          </g>
          <path
             id="path841"
             style="fill:#009a49;fill-opacity:1;stroke:none;stroke-width:25.3757;stroke-miterlimit:4;stroke-dasharray:none;stroke-opacity:1"
             d="m -701.93164,399.81836 34.59375,70.0918 h 47.50391 1.30859 47.50195 l 34.59375,-70.0918 -39.13476,0.0254 c 0.0119,-0.008 0.0217,-0.0174 0.0332,-0.0254 h -27.53125 c -0.0111,0.0242 -0.0223,0.048 -0.0332,0.0723 h -16.09766 -6.99023 c -0.0155,-0.024 -0.0302,-0.0482 -0.0469,-0.0723 h -26.25976 c 0.0199,0.016 0.0396,0.0329 0.0586,0.0488 z m 8.63086,81.78906 -0.52344,32.5 h 26.5586 l 28.38671,350.8086 c -13.50451,5.4446 -18.71093,16.99902 -18.71093,25.03515 0,10.86543 36.11523,35.02149 36.11523,35.02149 0,0 36.77975,-27.29327 37.16016,-36.61328 0.26153,-6.39563 -4.87308,-16.33489 -16.54688,-22.04102 3.09082,-40.20446 28.57786,-302.54219 33.4043,-352.18555 h 19.37695 l 0.5,-32.52539 z"
             transform="matrix(0.04206001,0,0,0.04206001,42.043238,-6.9033908)" />
        </g>
      </g>
      <text
         xml:space="preserve"
         style="font-size:11.2889px;line-height:1.25;font-family:univers;-inkscape-font-specification:univers;text-align:center;text-anchor:middle;fill:#009a49;fill-opacity:1;stroke-width:0.132292"
         x="60.751881"
         y="67.305878"
         id="text38231"><tspan
           sodipodi:role="line"
           id="tspan38229"
           style="font-style:normal;font-variant:normal;font-weight:bold;font-stretch:normal;font-size:11.2889px;font-family:'Century Gothic';-inkscape-font-specification:'Century Gothic Bold';text-align:center;text-anchor:middle;fill:#009a49;fill-opacity:1;stroke-width:0.132292"
           x="60.751881"
           y="67.305878"><tspan
   style="font-size:9.87779px;stroke-width:0.132292"
   id="tspan172264"> </tspan>R  A  D  <tspan
   style="fill:#ffffff;fill-opacity:1;stroke-width:0.132292"
   id="tspan167096">I </tspan> C  A  L</tspan><tspan
           sodipodi:role="line"
           style="font-style:normal;font-variant:normal;font-weight:bold;font-stretch:normal;font-size:11.2889px;font-family:'Century Gothic';-inkscape-font-specification:'Century Gothic Bold';text-align:center;text-anchor:middle;fill:#009a49;fill-opacity:1;stroke-width:0.132292"
           x="60.751881"
           y="81.4673"
           id="tspan161276">P  A <tspan
   style="fill:#ffffff;fill-opacity:1;stroke-width:0.132292"
   id="tspan169256"> R</tspan>  T  Y</tspan></text>
    </g>
    <circle
       style="fill:#ffd424;fill-opacity:1;stroke:#ffd424;stroke-width:3.33564;stroke-linecap:round;stroke-miterlimit:4;stroke-dasharray:none;stroke-opacity:1"
       id="path193672"
       cx="191.7505"
       cy="63.409504"
       r="58.362686"
       inkscape:export-filename="C:\Users\sharm\OneDrive\Desktop\g210419.png"
       inkscape:export-xdpi="90.006302"
       inkscape:export-ydpi="90.006302" />
    <circle
       style="fill:#ffffff;fill-opacity:1;stroke:none;stroke-width:2.6626;stroke-linecap:round;stroke-miterlimit:4;stroke-dasharray:none;stroke-opacity:1"
       id="path193672-7"
       cx="191.75032"
       cy="63.409199"
       r="46.586567"
       inkscape:export-filename="C:\Users\sharm\OneDrive\Desktop\g210419.png"
       inkscape:export-xdpi="90.006302"
       inkscape:export-ydpi="90.006302" />
    <g
       style="clip-rule:evenodd;fill-rule:evenodd;stroke-linecap:round"
       id="g254701"
       transform="matrix(0.26458333,0,0,0.26458333,21.92141,6.22975)">
      <g
         transform="matrix(0.26458,0,0,0.26458,2121,94.759)"
         id="g254369">
        <g
           transform="matrix(-4.4342124,0,0,4.4342124,-14340.367,3970.2852)"
           fill-rule="nonzero"
           id="g254365">
          <g
             transform="translate(309.6,111.9)"
             id="g254351">
            <path
               d="m -2351.3,-817.96 c -7.19,-0.29 -14.92,-3.741 -15.64,-5.519 -0.72,-1.79 7.74,-3.558 9.66,-15.638 7.03,-44.138 1.87,-48.733 64.37,-68.692 l 6.46,2.921 c 8.71,53.774 -7.43,89.241 -64.85,86.928 z"
               fill="#fbec88"
               stroke="#a9920d"
               stroke-linecap="butt"
               stroke-width="2.83px"
               id="path254295"
               style="fill:#ffd424;fill-opacity:1"
               inkscape:export-filename="C:\Users\sharm\OneDrive\Desktop\g210419.png"
               inkscape:export-xdpi="90.006302"
               inkscape:export-ydpi="90.006302" />
            <g
               transform="matrix(0.42021,-0.90743,0.90743,0.42021,-507.78,-2593.8)"
               id="g254307"
               inkscape:export-filename="C:\Users\sharm\OneDrive\Desktop\g210419.png"
               inkscape:export-xdpi="90.006302"
               inkscape:export-ydpi="90.006302">
              <path
                 d="m -2351.3,-817.96 c -7.19,-0.29 -14.92,-3.741 -15.64,-5.519 -0.72,-1.79 7.74,-3.558 9.66,-15.638 7.03,-44.138 1.87,-48.733 64.37,-68.692 l 6.46,2.921 c 8.71,53.774 -7.43,89.241 -64.85,86.928 z"
                 fill="#fbec88"
                 stroke="#a9920d"
                 stroke-linecap="butt"
                 stroke-width="2.83px"
                 id="path254301"
                 style="fill:#ffd424;fill-opacity:1" />
            </g>
            <g
               transform="matrix(-0.32078,-0.94715,0.94715,-0.32078,-2159.4,-3370.3)"
               id="g254315"
               inkscape:export-filename="C:\Users\sharm\OneDrive\Desktop\g210419.png"
               inkscape:export-xdpi="90.006302"
               inkscape:export-ydpi="90.006302">
              <path
                 d="m -2351.3,-817.96 c -7.19,-0.29 -14.92,-3.741 -15.64,-5.519 -0.72,-1.79 7.74,-3.558 9.66,-15.638 7.03,-44.138 1.87,-48.733 64.37,-68.692 l 6.46,2.921 c 8.71,53.774 -7.43,89.241 -64.85,86.928 z"
                 fill="#fbec88"
                 stroke="#a9920d"
                 stroke-linecap="butt"
                 stroke-width="2.83px"
                 id="path254309"
                 style="fill:#ffd424;fill-opacity:1" />
            </g>
            <g
               transform="matrix(-0.78758,0.61621,-0.61621,-0.78758,-4654.3,-207.72)"
               id="g254323"
               inkscape:export-filename="C:\Users\sharm\OneDrive\Desktop\g210419.png"
               inkscape:export-xdpi="90.006302"
               inkscape:export-ydpi="90.006302">
              <path
                 d="m -2351.3,-817.96 c -7.19,-0.29 -14.92,-3.741 -15.64,-5.519 -0.72,-1.79 7.74,-3.558 9.66,-15.638 7.03,-44.138 1.87,-48.733 64.37,-68.692 l 6.46,2.921 c 8.71,53.774 -7.43,89.241 -64.85,86.928 z"
                 fill="#fbec88"
                 stroke="#a9920d"
                 stroke-linecap="butt"
                 stroke-width="2.83px"
                 id="path254317"
                 style="fill:#ffd424;fill-opacity:1" />
            </g>
            <g
               transform="matrix(-0.99434,-0.10626,0.10626,-0.99434,-4463.2,-2038.2)"
               id="g254331"
               inkscape:export-filename="C:\Users\sharm\OneDrive\Desktop\g210419.png"
               inkscape:export-xdpi="90.006302"
               inkscape:export-ydpi="90.006302">
              <path
                 d="m -2351.3,-817.96 c -7.19,-0.29 -14.92,-3.741 -15.64,-5.519 -0.72,-1.79 7.74,-3.558 9.66,-15.638 7.03,-44.138 1.87,-48.733 64.37,-68.692 l 6.46,2.921 c 8.71,53.774 -7.43,89.241 -64.85,86.928 z"
                 fill="#fbec88"
                 stroke="#a9920d"
                 stroke-linecap="butt"
                 stroke-width="2.83px"
                 id="path254325"
                 style="fill:#ffd424;fill-opacity:1" />
            </g>
            <g
               transform="matrix(0.29947,0.9541,-0.9541,0.29947,-2460.2,1549.4)"
               id="g254339"
               inkscape:export-filename="C:\Users\sharm\OneDrive\Desktop\g210419.png"
               inkscape:export-xdpi="90.006302"
               inkscape:export-ydpi="90.006302">
              <path
                 d="m -2351.3,-817.96 c -7.19,-0.29 -14.92,-3.741 -15.64,-5.519 -0.72,-1.79 7.74,-3.558 9.66,-15.638 7.03,-44.138 1.87,-48.733 64.37,-68.692 l 6.46,2.921 c 8.71,53.774 -7.43,89.241 -64.85,86.928 z"
                 fill="#fbec88"
                 stroke="#a9920d"
                 stroke-linecap="butt"
                 stroke-width="2.83px"
                 id="path254333"
                 style="fill:#ffd424;fill-opacity:1" />
            </g>
            <path
               d="m -2270.9,-945.3 c -2.39,-0.55 7.76,25.629 16.92,45.006 3.6,7.635 -2.49,21.54 -9.06,26.835 -5.86,4.716 -21.37,6.972 -25.94,1.001 -10.59,-13.834 -27.16,-28.437 -28.38,-24.78 z"
               fill="#fbdd14"
               stroke="#a9920d"
               stroke-linecap="butt"
               stroke-width="2.83px"
               id="path254341"
               style="fill:#ffd424;fill-opacity:1"
               inkscape:export-filename="C:\Users\sharm\OneDrive\Desktop\g210419.png"
               inkscape:export-xdpi="90.006302"
               inkscape:export-ydpi="90.006302" />
            <path
               d="m -2265.7,-953.12 c 1.7,-12.257 -1.33,-12.865 -12.18,-12.728 -8.1,-7.999 -11.32,-5.297 -19.55,2.147 -11.21,-4.839 -14.77,-1.918 -19.11,8.908 -11.9,-0.943 -14.54,2.828 -15.68,13.744 -9.95,3.923 -13.03,7.351 -8.34,18.113 -5.42,8.855 -7.52,12.231 2.02,19.653 -1.11,12.962 1.18,13.329 12.45,13.111 6.72,9.349 9.62,6.765 18.47,1.348 10.76,4.682 14.19,1.61 18.12,-8.345 10.91,-1.141 14.68,-3.781 13.74,-15.679 10.83,-4.339 13.75,-7.898 8.91,-19.106 7.44,-8.232 8.69,-12.662 1.15,-21.166 z"
               fill="#fbec88"
               stroke="#a9920d"
               stroke-linecap="butt"
               stroke-width="2.83px"
               id="path254343"
               style="fill:#ffd424;fill-opacity:1"
               inkscape:export-filename="C:\Users\sharm\OneDrive\Desktop\g210419.png"
               inkscape:export-xdpi="90.006302"
               inkscape:export-ydpi="90.006302" />
            <path
               d="m -2301.4,-958.45 c -3.05,-1.755 -7.42,-2.453 -8.51,1.837 -1.48,4.518 -4.98,8.644 -10.21,7.338 -4.84,-1.134 -6.18,3.918 -6.28,7.704 0.55,6.684 -9.57,5.008 -10.15,10.372 0.64,3.453 3.58,7.17 0.92,10.534 -1.36,2.883 -5.43,6.865 -1.17,9.235 3.07,1.892 5.06,5.234 3.94,10.914 4.82,2.151 10.49,1.91 13.14,7.007 1.87,2.957 5.4,-1.86 8.14,-2.624 4.1,-3.749 10.85,5.119 13.32,-1.287 1.51,-4.527 4.74,-8.335 9.88,-8.099 4.84,0.216 5.67,-4.602 4.89,-8.389 -0.85,-7.219 9.09,-5.798 10.82,-11.001 -0.81,-4.49 -4.22,-9.702 0.49,-13.316 2.58,-2.507 4.83,-6.582 1.44,-9.47 -3.88,-2.796 -2.52,-8.632 -2.72,-11.818 -4.76,-0.204 -9.69,-0.369 -13.67,-4.692 -5.26,1.772 -8.47,8.374 -14.27,5.754 z"
               fill="#fbdd14"
               id="path254345"
               style="fill:#e3b600;fill-opacity:1"
               inkscape:export-filename="C:\Users\sharm\OneDrive\Desktop\g210419.png"
               inkscape:export-xdpi="90.006302"
               inkscape:export-ydpi="90.006302" />
            <path
               d="m -2284.1,-958.11 c 0.32,3.33 1.72,6.607 4.39,8.681 0.67,-0.332 -0.72,0.577 -1.37,1.893 0.09,0.056 -1.09,0.826 -1.93,2.065 -3,4.032 -2.59,9.475 -0.81,13.924 -2.13,1.056 -4.52,1.959 -6.45,3.394 -1.96,-6.525 -5.83,-17.304 -9.73,-15.989 -3.08,1.042 7.67,19.584 2.01,17.739 -4.89,-1.594 -13.4,-14.272 -16.4,-10.713 -3.42,4.055 10.62,11.064 13.05,18.082 1.87,5.38 -17.13,-1.301 -17.07,0.67 0.16,4.938 7.88,6.25 14.15,6.505 -1.13,1.132 -2.07,2.466 -2.71,3.959 -0.49,3.915 -3.69,0.595 -6.15,0.575 -3.81,-0.644 -7.1,1.759 -10.15,3.638 -1.97,-2.351 -4.61,-3.899 -7.44,-4.928 0.57,1.655 0.89,3.52 0.93,5.515 1.65,0.549 3.37,1.005 5.45,1.755 2.3,0.828 4.72,2.49 6.55,4.988 0.91,-0.603 2.43,-1.787 4.46,-2.624 1.81,-1.308 4.05,-1.692 5.73,-1.418 1.85,0.304 3.31,0.974 4.47,1.412 0.98,0.371 1.44,0.423 1.58,0.46 l -0.02,0.039 c 0.01,-0.015 0.02,-0.026 0.03,-0.039 0,0.001 0.03,0.008 0.04,0.011 0,-0.035 0,-0.048 0.02,-0.1 0.89,-2.638 2.27,-5.195 4.44,-7.169 2.21,-2.009 5.33,-3.312 8.78,-3.156 1.26,0.056 0.94,0.042 1.23,-0.62 0.28,-0.663 0.4,-2.256 0.12,-3.627 -0.02,-0.1 -0.04,-0.202 -0.05,-0.304 -0.3,-2.568 0.51,-5.082 1.92,-6.699 1.41,-1.617 3.08,-2.43 4.51,-3.089 1.43,-0.661 2.7,-1.176 3.49,-1.656 0.45,-0.276 0.46,-0.423 0.61,-0.603 -0.44,-1.581 -1.13,-3.371 -1.51,-5.803 -0.46,-2.879 0.28,-6.839 3.36,-9.389 0.96,-0.95 1.79,-2.225 1.99,-2.979 0.21,-0.755 0.36,-0.67 -0.39,-1.312 0.06,0.049 0.12,0.101 0.19,0.149 l -0.22,-0.177 c -2.84,-2.181 -3.74,-5.505 -3.95,-8.122 -0.11,-1.445 -0.03,-2.169 0.01,-3.283 -2.34,-0.195 -4.77,-0.61 -7.16,-1.655 z m 9.53,17.379 c -0.01,0.017 -0.03,0.038 -0.05,0.055 l 0.31,-0.271 c -0.09,0.069 -0.17,0.144 -0.26,0.216 z m -26.92,42.216 c -0.06,0.295 0.15,0.083 0.24,0.072 0.01,-0.002 -0.16,-0.052 -0.24,-0.072 z m -33.52,-16.321 c -0.04,0.085 -0.11,0.196 -0.14,0.271 -0.03,0.075 -0.02,0.074 -0.03,0.127 0.02,0.014 0,10e-4 0.03,0.017 0.04,0.025 0.09,0.051 0.13,0.078 0.12,0.073 0.23,0.154 0.34,0.232 -0.1,-0.246 -0.21,-0.484 -0.33,-0.725 z m -0.17,0.398 c -0.4,-0.221 -0.18,-0.124 -0.12,0.117 0.06,0.212 0.03,0.148 0.12,-0.117 z m 26.63,9.75 c -0.2,0.632 -0.19,0.011 0,0 z m -13,3.006 c 0.34,0.02 0.66,1.136 0,0 z m 4.6,6.295 c 0.07,0.127 0.19,0.178 0.26,0.31 l -0.15,-0.26 c 0,-0.002 -0.1,-0.041 -0.11,-0.05 z"
               fill="#e2c412"
               id="path254347"
               style="fill:#cba300;fill-opacity:1"
               inkscape:export-filename="C:\Users\sharm\OneDrive\Desktop\g210419.png"
               inkscape:export-xdpi="90.006302"
               inkscape:export-ydpi="90.006302" />
          </g>
        </g>
      </g>
    </g>
    <g
       transform="matrix(0.40441161,0,0,0.40441161,-736.68594,-345.8846)"
       id="g12270">
      <g
         transform="translate(888.57143,-260)"
         id="g6198" />
    </g>
  </g>
  <g
     inkscape:groupmode="layer"
     id="layer2"
     inkscape:label="text">
    <text
       xml:space="preserve"
       style="font-size:13.4509px;line-height:1.25;font-family:univers;-inkscape-font-specification:univers;fill:#ffffff;fill-opacity:1;stroke:none;stroke-width:0.722961;stroke-miterlimit:4;stroke-dasharray:none"
       id="text195364"
       transform="matrix(-0.77229258,0.32852992,-0.32852992,-0.77229258,360.81679,49.370041)"
       inkscape:export-filename="C:\Users\sharm\OneDrive\Desktop\g210419.png"
       inkscape:export-xdpi="90.006302"
       inkscape:export-ydpi="90.006302"><textPath
         xlink:href="#path193672"
         id="textPath195710"
         style="font-style:normal;font-variant:normal;font-weight:bold;font-stretch:normal;font-size:13.4509px;font-family:'Century Gothic';-inkscape-font-specification:'Century Gothic Bold';fill:#ffffff;fill-opacity:1;stroke:none;stroke-width:0.722961;stroke-miterlimit:4;stroke-dasharray:none;stroke-opacity:1"> MODERATE AND FREE TRADE PARTY</textPath></text>
  </g>
</svg>
